<svg xmlns="http://www.w3.org/2000/svg" version="1.1" xmlns:xlink="http://www.w3.org/1999/xlink" xmlns:svgjs="http://svgjs.dev/svgjs" width="1000" height="1000" viewBox="0 0 1000 1000"><rect width="1000" height="1000" fill="#ffffff"></rect><g transform="matrix(0.7,0,0,0.7,149.57576239767718,375.03431638926685)"><svg viewBox="0 0 396 141" data-background-color="#77d4fc" preserveAspectRatio="xMidYMid meet" height="356" width="1000" xmlns="http://www.w3.org/2000/svg" xmlns:xlink="http://www.w3.org/1999/xlink"><g id="tight-bounds" transform="matrix(1,0,0,1,0.2399972721711947,0.2069083666181939)"><svg viewBox="0 0 395.52 140.58618397241324" height="140.58618397241324" width="395.52"><g><svg viewBox="0 0 665.2793354233262 236.47118487780278" height="140.58618397241324" width="395.52"><g><rect width="8.132712758217696" height="171.9634882794441" x="240.33679869071665" y="32.25384829917934" fill="#000000" opacity="1" stroke-width="0" stroke="transparent" fill-opacity="1" class="rect-o-0" data-fill-palette-color="primary" rx="1%" id="o-0" data-palette-color="#0080ff"></rect></g><g transform="matrix(1,0,0,1,269.7593354233262,32.68161817052123)"><svg viewBox="0 0 395.52 171.10794853676032" height="171.10794853676032" width="395.52"><g id="textblocktransform"><svg viewBox="0 0 395.52 171.10794853676032" height="171.10794853676032" width="395.52" id="textblock"><g><svg viewBox="0 0 395.52 90.1820768497936" height="90.1820768497936" width="395.52"><g transform="matrix(1,0,0,1,0,0)"><svg width="395.52" viewBox="0.5 -35.20000076293945 157.83999633789062 35.900001525878906" height="90.1820768497936" data-palette-color="#0080ff"><g class="undefined-text-0" data-fill-palette-color="primary" id="text-0"><path d="M6.95-34.5L17.7-34.5 17.7-6.35Q17.7-3 15.25-1.15 12.8 0.7 8.55 0.7L8.55 0.7Q7.45 0.7 5.88 0.55 4.3 0.4 2.83 0.13 1.35-0.15 0.5-0.6L0.5-0.6 1.65-7.4 4-7.4Q6.95-7.4 6.95-9.15L6.95-9.15 6.95-34.5ZM32.35-34.5L42.2-34.5Q43.5-34.5 44.5-33.75 45.5-33 45.85-31.7L45.85-31.7 54.8 0 43.75 0 38.55-22.45Q38.35-23.4 38.2-24.43 38.05-25.45 37.95-26.4L37.95-26.4 36.6-26.4Q36.5-25.45 36.35-24.43 36.2-23.4 36-22.45L36-22.45 30.8 0 19.75 0 28.7-31.7Q29.05-33 30.05-33.75 31.05-34.5 32.35-34.5L32.35-34.5ZM28.1-15.05L46.45-15.05 46.45-7.45 28.1-7.45 28.1-15.05ZM71.59-35.1L71.59-35.1Q74.3-35.1 76.19-34.95 78.09-34.8 79.67-34.52 81.25-34.25 82.94-33.75L82.94-33.75 82.14-25.85Q80.39-25.9 78.89-25.9 77.39-25.9 75.69-25.93 74-25.95 71.59-25.95L71.59-25.95Q69.89-25.95 68.97-25.23 68.05-24.5 67.69-22.63 67.34-20.75 67.34-17.25L67.34-17.25Q67.34-13.75 67.69-11.88 68.05-10 68.97-9.28 69.89-8.55 71.59-8.55L71.59-8.55Q75.34-8.55 77.87-8.63 80.39-8.7 82.89-8.95L82.89-8.95 83.69-1.05Q81.09-0.15 78.37 0.23 75.64 0.6 71.59 0.6L71.59 0.6Q65.89 0.6 62.45-1.13 58.99-2.85 57.47-6.75 55.95-10.65 55.95-17.25L55.95-17.25Q55.95-23.85 57.47-27.75 58.99-31.65 62.45-33.38 65.89-35.1 71.59-35.1ZM106.69-34.5L118.34-34.5 110.39-21Q109.74-19.85 108.89-19.05 108.04-18.25 107.34-17.95L107.34-17.95 107.34-17.75Q108.04-17.45 109.12-16.48 110.19-15.5 110.79-14.35L110.79-14.35 118.84 0 106.79 0 97.64-18.05 106.69-34.5ZM87.24-34.5L98.09-34.5 98.09-25.8Q98.09-23.9 97.72-21.88 97.34-19.85 96.54-18.1L96.54-18.1Q97.14-16.5 97.62-14.63 98.09-12.75 98.09-11.25L98.09-11.25 98.09 0 87.24 0 87.24-34.5ZM94.99-21.4L100.79-21.4 100.79-14.4 94.99-14.4 94.99-21.4ZM120.14-34.5L127.34-34.5 126.74-23.1 120.74-23.1 120.14-34.5ZM144.79-35.2L144.79-35.2Q147.49-35.2 150.86-34.88 154.24-34.55 157.34-33.45L157.34-33.45 156.69-26.5Q154.44-26.55 151.11-26.58 147.79-26.6 144.54-26.6L144.54-26.6Q143.59-26.6 142.96-26.55 142.34-26.5 141.99-26.35 141.64-26.2 141.49-25.95 141.34-25.7 141.34-25.3L141.34-25.3Q141.34-24.6 141.96-24.13 142.59-23.65 144.34-22.95L144.34-22.95 150.59-20.35Q154.89-18.5 156.61-16.07 158.34-13.65 158.34-9.85L158.34-9.85Q158.34-6.95 157.64-4.93 156.94-2.9 155.31-1.68 153.69-0.45 150.99 0.13 148.29 0.7 144.24 0.7L144.24 0.7Q142.49 0.7 138.94 0.43 135.39 0.15 130.89-1L130.89-1 131.54-8.6Q134.54-8.55 137.04-8.47 139.54-8.4 141.36-8.38 143.19-8.35 144.09-8.35L144.09-8.35Q145.49-8.35 146.21-8.45 146.94-8.55 147.21-8.83 147.49-9.1 147.49-9.55L147.49-9.55Q147.49-10.05 147.29-10.38 147.09-10.7 146.59-11 146.09-11.3 145.14-11.65L145.14-11.65 138.29-14.65Q134.09-16.55 132.34-18.9 130.59-21.25 130.59-25.05L130.59-25.05Q130.59-28 131.36-29.95 132.14-31.9 133.79-33.05 135.44-34.2 138.16-34.7 140.89-35.2 144.79-35.2Z" fill="#000000" data-fill-palette-color="primary"></path></g></svg></g></svg></g><g transform="matrix(1,0,0,1,0,111.47190082418548)"><svg viewBox="0 0 232.20979199999996 59.63604771257484" height="59.63604771257484" width="232.20979199999996"><g transform="matrix(1,0,0,1,0,0)"><svg width="232.20979199999996" viewBox="4 -38.29999923706055 150.27999877929688 38.599998474121094" height="59.63604771257484" data-palette-color="#0023ff"><path d="M5.25 0L5.25 0Q4.75 0 4.38-0.28 4-0.55 4-1.05L4-1.05 4-35.55Q4-35.95 4.3-36.23 4.6-36.5 5.1-36.55L5.1-36.55 14.15-36.55Q16.95-36.55 19.23-35.52 21.5-34.5 22.83-32.2 24.15-29.9 24.15-26.1L24.15-26.1 24.15-25.55Q24.15-21.75 22.83-19.45 21.5-17.15 19.2-16.1 16.9-15.05 14.1-15.05L14.1-15.05 6.5-15.05 6.5-1.05Q6.5-0.55 6.1-0.28 5.7 0 5.25 0ZM6.5-34.15L6.5-17.35 14.1-17.35Q17.65-17.35 19.65-19.35 21.65-21.35 21.65-25.5L21.65-25.5 21.65-26.1Q21.65-30.2 19.65-32.18 17.65-34.15 14.1-34.15L14.1-34.15 6.5-34.15ZM36.2 0.3L36.2 0.3Q33.8 0.3 31.7-1 29.6-2.3 28.32-4.4 27.05-6.5 27.05-8.95L27.05-8.95 27.05-14.75Q27.05-17.2 28.3-19.3 29.55-21.4 31.65-22.65 33.75-23.9 36.2-23.9L36.2-23.9Q38.7-23.9 40.77-22.68 42.85-21.45 44.12-19.38 45.4-17.3 45.4-14.75L45.4-14.75 45.4-8.95Q45.4-6.55 44.12-4.42 42.85-2.3 40.77-1 38.7 0.3 36.2 0.3ZM36.2-2L36.2-2Q38.1-2 39.6-3 41.1-4 42.02-5.6 42.95-7.2 42.95-8.95L42.95-8.95 42.95-14.75Q42.95-16.5 42.05-18.05 41.15-19.6 39.62-20.6 38.1-21.6 36.2-21.6L36.2-21.6Q34.3-21.6 32.8-20.6 31.3-19.6 30.4-18.05 29.5-16.5 29.5-14.75L29.5-14.75 29.5-8.95Q29.5-7.2 30.4-5.6 31.3-4 32.82-3 34.35-2 36.2-2ZM52.2 0L52.2 0Q51.7 0 51.35-0.33 51-0.65 51-1.05L51-1.05 51-22.6Q51-23.05 51.35-23.33 51.7-23.6 52.2-23.6L52.2-23.6Q52.75-23.6 53.07-23.33 53.4-23.05 53.4-22.6L53.4-22.6 53.4-20.05Q54-21.05 54.95-21.93 55.9-22.8 57.22-23.35 58.55-23.9 60.25-23.9L60.25-23.9 62.05-23.9Q62.5-23.9 62.8-23.58 63.1-23.25 63.1-22.75L63.1-22.75Q63.1-22.25 62.8-21.93 62.5-21.6 62.05-21.6L62.05-21.6 60.25-21.6Q58.55-21.6 56.97-20.73 55.4-19.85 54.42-18.23 53.45-16.6 53.45-14.3L53.45-14.3 53.45-1.05Q53.45-0.65 53.1-0.33 52.75 0 52.2 0ZM75.64 0L74.39 0Q70.69 0 68.74-1.7 66.79-3.4 66.79-7.1L66.79-7.1 66.79-34Q66.79-34.5 67.19-34.77 67.59-35.05 67.99-35.05L67.99-35.05Q68.49-35.05 68.87-34.77 69.24-34.5 69.24-34L69.24-34 69.24-23.6 75.89-23.6Q76.29-23.6 76.57-23.3 76.84-23 76.84-22.5L76.84-22.5Q76.84-22.1 76.57-21.78 76.29-21.45 75.89-21.45L75.89-21.45 69.24-21.45 69.24-7.1Q69.24-4.5 70.42-3.4 71.59-2.3 74.39-2.3L74.39-2.3 75.64-2.3Q76.19-2.3 76.49-1.98 76.79-1.65 76.79-1.15L76.79-1.15Q76.79-0.7 76.49-0.35 76.19 0 75.64 0L75.64 0ZM82.24 0L82.24 0Q81.74 0 81.42-0.3 81.09-0.6 81.09-1L81.09-1 81.09-29.25Q81.09-31.7 82.32-33.75 83.54-35.8 85.57-37.05 87.59-38.3 89.99-38.3L89.99-38.3 90.84-38.3Q91.39-38.3 91.69-37.95 91.99-37.6 91.99-37.1L91.99-37.1Q91.99-36.65 91.69-36.33 91.39-36 90.84-36L90.84-36 90.19-36Q88.34-36 86.84-35.05 85.34-34.1 84.47-32.6 83.59-31.1 83.54-29.35L83.54-29.35 83.54-23.6 90.99-23.6Q91.44-23.6 91.72-23.3 91.99-23 91.99-22.55L91.99-22.55Q91.99-22.1 91.72-21.78 91.44-21.45 90.99-21.45L90.99-21.45 83.54-21.45 83.54-1Q83.54-0.6 83.17-0.3 82.79 0 82.24 0ZM103.14 0.3L103.14 0.3Q100.74 0.3 98.64-1 96.54-2.3 95.26-4.4 93.99-6.5 93.99-8.95L93.99-8.95 93.99-14.75Q93.99-17.2 95.24-19.3 96.49-21.4 98.59-22.65 100.69-23.9 103.14-23.9L103.14-23.9Q105.64-23.9 107.71-22.68 109.79-21.45 111.06-19.38 112.34-17.3 112.34-14.75L112.34-14.75 112.34-8.95Q112.34-6.55 111.06-4.42 109.79-2.3 107.71-1 105.64 0.3 103.14 0.3ZM103.14-2L103.14-2Q105.04-2 106.54-3 108.04-4 108.96-5.6 109.89-7.2 109.89-8.95L109.89-8.95 109.89-14.75Q109.89-16.5 108.99-18.05 108.09-19.6 106.56-20.6 105.04-21.6 103.14-21.6L103.14-21.6Q101.24-21.6 99.74-20.6 98.24-19.6 97.34-18.05 96.44-16.5 96.44-14.75L96.44-14.75 96.44-8.95Q96.44-7.2 97.34-5.6 98.24-4 99.76-3 101.29-2 103.14-2ZM119.59 0L119.59 0Q119.09 0 118.74-0.33 118.39-0.65 118.39-1.05L118.39-1.05 118.39-37.25Q118.39-37.75 118.74-38.02 119.09-38.3 119.59-38.3L119.59-38.3Q120.14-38.3 120.49-38.02 120.84-37.75 120.84-37.25L120.84-37.25 120.84-1.05Q120.84-0.65 120.49-0.33 120.14 0 119.59 0ZM129.03 0L129.03 0Q128.53 0 128.18-0.33 127.83-0.65 127.83-1.05L127.83-1.05 127.83-22.6Q127.83-23.05 128.18-23.33 128.53-23.6 129.03-23.6L129.03-23.6Q129.58-23.6 129.93-23.33 130.28-23.05 130.28-22.6L130.28-22.6 130.28-1.05Q130.28-0.65 129.93-0.33 129.58 0 129.03 0ZM129.03-31.05L129.03-31.05Q128.28-31.05 127.71-31.6 127.13-32.15 127.13-32.9L127.13-32.9Q127.13-33.65 127.71-34.15 128.28-34.65 129.03-34.65L129.03-34.65Q129.83-34.65 130.36-34.15 130.88-33.65 130.88-32.9L130.88-32.9Q130.88-32.15 130.36-31.6 129.83-31.05 129.03-31.05ZM145.08 0.3L145.08 0.3Q142.68 0.3 140.58-1 138.48-2.3 137.21-4.4 135.93-6.5 135.93-8.95L135.93-8.95 135.93-14.75Q135.93-17.2 137.18-19.3 138.43-21.4 140.53-22.65 142.63-23.9 145.08-23.9L145.08-23.9Q147.58-23.9 149.66-22.68 151.73-21.45 153.01-19.38 154.28-17.3 154.28-14.75L154.28-14.75 154.28-8.95Q154.28-6.55 153.01-4.42 151.73-2.3 149.66-1 147.58 0.3 145.08 0.3ZM145.08-2L145.08-2Q146.98-2 148.48-3 149.98-4 150.91-5.6 151.83-7.2 151.83-8.95L151.83-8.95 151.83-14.75Q151.83-16.5 150.93-18.05 150.03-19.6 148.51-20.6 146.98-21.6 145.08-21.6L145.08-21.6Q143.18-21.6 141.68-20.6 140.18-19.6 139.28-18.05 138.38-16.5 138.38-14.75L138.38-14.75 138.38-8.95Q138.38-7.2 139.28-5.6 140.18-4 141.71-3 143.23-2 145.08-2Z" opacity="1" transform="matrix(1,0,0,1,0,0)" fill="#000000" class="undefined-text-1" data-fill-palette-color="secondary" id="text-1"></path></svg></g></svg></g></svg></g></svg></g><g><svg viewBox="0 0 219.04697471632477 236.47118487780278" height="236.47118487780278" width="219.04697471632477"><g><svg xmlns="http://www.w3.org/2000/svg" xmlns:xlink="http://www.w3.org/1999/xlink" version="1.1" viewBox="4 0.5000004768371582 88 95.00000762939453" x="0" y="0" height="236.47118487780278" width="219.04697471632477" class="icon-icon-0" data-fill-palette-color="accent" id="icon-0"><path d="M47.5 67.5c-11.86 0-21.524-12.88-22.428-24.272-2.668-0.752-5.072-2.952-5.072-5.728v-8c0-2.5 2.42-4.304 4-5.216v-6.784c0-7.584 6.06-13.776 13.588-13.992 1.608-0.644 7.944-3.008 14.412-3.008 10.32 0 16 6.04 16 17v6.176c4 0.78 4 3.992 4 5.824v8c0 2.784-1.264 4.86-3.304 5.648-0.768 11.82-9.576 24.352-21.196 24.352zM52 4.5c-6.488 0-13.148 2.808-13.212 2.84-0.252 0.104-0.516 0.16-0.788 0.16-5.512 0-10 4.484-10 10v8c0 0.784-0.464 1.5-1.18 1.824-1.424 0.644-2.744 1.748-2.824 2.192v7.984c0 0.88 1.68 2 3 2 1.104 0 2 0.896 2 2 0 9.904 8.536 22 18.5 22 9.716 0 17.252-11.828 17.252-22 0-1.104 0.896-2 2-2 0.828 0 1.252-0.672 1.252-2v-8c0-2 0-2-2-2-1.1 0-2-0.896-2-2v-8c0-8.748-3.92-13-12-13z" fill="#000000" data-fill-palette-color="accent"></path><path d="M6 95.5c-1.104 0-2-0.896-2-2v-4c0-11.584 9.252-20 22-20h4.932l5.324-7.944c0.616-0.916 1.86-1.168 2.776-0.548 0.916 0.612 1.164 1.856 0.548 2.772l-5.916 8.832c-0.372 0.556-0.996 0.888-1.664 0.888h-6c-10.596 0-18 6.584-18 16v4c0 1.104-0.896 2-2 2z" fill="#000000" data-fill-palette-color="accent"></path><path d="M90 95.5c-1.1 0-2-0.896-2-2v-4c0-9.42-7.264-16-17.672-16h-6c-0.66 0-1.272-0.324-1.648-0.868l-6.492-9.44c-0.624-0.912-0.396-2.156 0.516-2.776 0.916-0.62 2.156-0.396 2.78 0.52l5.9 8.576h4.944c12.756 0 21.672 8.228 21.672 20v4c0 1.092-0.9 1.988-2 1.988z" fill="#000000" data-fill-palette-color="accent"></path><path d="M40 91.5c-0.12 0-0.244-0.012-0.364-0.036-0.648-0.116-1.196-0.552-1.464-1.152l-8-18c-0.356-0.804-0.148-1.752 0.516-2.324 0.668-0.584 1.628-0.644 2.372-0.184l16 10c0.516 0.324 0.856 0.864 0.924 1.468 0.072 0.596-0.14 1.212-0.572 1.632l-8 8c-0.376 0.388-0.888 0.596-1.412 0.596zM36.484 76.66l4.164 9.368 4.164-4.164-8.328-5.204z" fill="#000000" data-fill-palette-color="accent"></path><path d="M55.996 91.5c-0.524 0-1.036-0.208-1.416-0.584l-8-8c-0.432-0.42-0.644-1.036-0.572-1.632 0.068-0.604 0.412-1.144 0.924-1.468l16-10c0.748-0.464 1.708-0.4 2.376 0.184 0.664 0.584 0.872 1.52 0.516 2.324l-8 18c-0.268 0.6-0.816 1.036-1.464 1.152-0.116 0.012-0.244 0.024-0.364 0.024zM51.188 81.864l4.164 4.164 4.164-9.368-8.328 5.204z" fill="#000000" data-fill-palette-color="accent"></path></svg></g></svg></g></svg></g><defs></defs></svg><rect width="395.52" height="140.58618397241324" fill="none" stroke="none" visibility="hidden"></rect></g></svg></g></svg>