<svg width="242" height="45" viewBox="0 0 242 45" fill="none" xmlns="http://www.w3.org/2000/svg">
<path d="M58.315 36L68.64 21.79V25.22L58.805 11.5H63.95L71.265 21.65L69.165 21.685L76.41 11.5H81.345L71.58 24.975V21.685L81.975 36H76.725L69.025 25.22H71.09L63.495 36H58.315ZM92.478 36.245C90.5647 36.245 88.8613 35.8367 87.368 35.02C85.8747 34.18 84.6963 33.0367 83.833 31.59C82.9697 30.1433 82.538 28.4983 82.538 26.655C82.538 24.7883 82.9697 23.1433 83.833 21.72C84.6963 20.2733 85.8747 19.1417 87.368 18.325C88.8613 17.5083 90.5647 17.1 92.478 17.1C94.4147 17.1 96.1297 17.5083 97.623 18.325C99.1397 19.1417 100.318 20.2617 101.158 21.685C102.021 23.1083 102.453 24.765 102.453 26.655C102.453 28.4983 102.021 30.1433 101.158 31.59C100.318 33.0367 99.1397 34.18 97.623 35.02C96.1297 35.8367 94.4147 36.245 92.478 36.245ZM92.478 32.5C93.5513 32.5 94.508 32.2667 95.348 31.8C96.188 31.3333 96.8413 30.6567 97.308 29.77C97.798 28.8833 98.043 27.845 98.043 26.655C98.043 25.4417 97.798 24.4033 97.308 23.54C96.8413 22.6533 96.188 21.9767 95.348 21.51C94.508 21.0433 93.563 20.81 92.513 20.81C91.4397 20.81 90.483 21.0433 89.643 21.51C88.8263 21.9767 88.173 22.6533 87.683 23.54C87.193 24.4033 86.948 25.4417 86.948 26.655C86.948 27.845 87.193 28.8833 87.683 29.77C88.173 30.6567 88.8263 31.3333 89.643 31.8C90.483 32.2667 91.428 32.5 92.478 32.5ZM117.242 17.1C118.735 17.1 120.065 17.3917 121.232 17.975C122.422 18.5583 123.355 19.4567 124.032 20.67C124.708 21.86 125.047 23.4 125.047 25.29V36H120.672V25.85C120.672 24.1933 120.275 22.9567 119.482 22.14C118.712 21.3233 117.627 20.915 116.227 20.915C115.2 20.915 114.29 21.125 113.497 21.545C112.703 21.965 112.085 22.595 111.642 23.435C111.222 24.2517 111.012 25.29 111.012 26.55V36H106.637V17.31H110.802V22.35L110.067 20.81C110.72 19.62 111.665 18.71 112.902 18.08C114.162 17.4267 115.608 17.1 117.242 17.1ZM152.029 36.35C150.163 36.35 148.424 36.0467 146.814 35.44C145.228 34.81 143.839 33.935 142.649 32.815C141.483 31.6717 140.573 30.33 139.919 28.79C139.266 27.25 138.939 25.57 138.939 23.75C138.939 21.93 139.266 20.25 139.919 18.71C140.573 17.17 141.494 15.84 142.684 14.72C143.874 13.5767 145.263 12.7017 146.849 12.095C148.436 11.465 150.174 11.15 152.064 11.15C154.071 11.15 155.903 11.5 157.559 12.2C159.216 12.8767 160.616 13.8917 161.759 15.245L158.819 18.01C157.933 17.0533 156.941 16.3417 155.844 15.875C154.748 15.385 153.558 15.14 152.274 15.14C150.991 15.14 149.813 15.35 148.739 15.77C147.689 16.19 146.768 16.785 145.974 17.555C145.204 18.325 144.598 19.235 144.154 20.285C143.734 21.335 143.524 22.49 143.524 23.75C143.524 25.01 143.734 26.165 144.154 27.215C144.598 28.265 145.204 29.175 145.974 29.945C146.768 30.715 147.689 31.31 148.739 31.73C149.813 32.15 150.991 32.36 152.274 32.36C153.558 32.36 154.748 32.1267 155.844 31.66C156.941 31.17 157.933 30.435 158.819 29.455L161.759 32.255C160.616 33.585 159.216 34.6 157.559 35.3C155.903 36 154.059 36.35 152.029 36.35ZM177.043 36V32.22L176.798 31.415V24.8C176.798 23.5167 176.413 22.525 175.643 21.825C174.873 21.1017 173.707 20.74 172.143 20.74C171.093 20.74 170.055 20.9033 169.028 21.23C168.025 21.5567 167.173 22.0117 166.473 22.595L164.758 19.41C165.762 18.64 166.952 18.0683 168.328 17.695C169.728 17.2983 171.175 17.1 172.668 17.1C175.375 17.1 177.463 17.7533 178.933 19.06C180.427 20.3433 181.173 22.3383 181.173 25.045V36H177.043ZM171.163 36.245C169.763 36.245 168.538 36.0117 167.488 35.545C166.438 35.055 165.622 34.39 165.038 33.55C164.478 32.6867 164.198 31.7183 164.198 30.645C164.198 29.595 164.443 28.65 164.933 27.81C165.447 26.97 166.275 26.305 167.418 25.815C168.562 25.325 170.078 25.08 171.968 25.08H177.393V27.985H172.283C170.79 27.985 169.787 28.23 169.273 28.72C168.76 29.1867 168.503 29.77 168.503 30.47C168.503 31.2633 168.818 31.8933 169.448 32.36C170.078 32.8267 170.953 33.06 172.073 33.06C173.147 33.06 174.103 32.815 174.943 32.325C175.807 31.835 176.425 31.1117 176.798 30.155L177.533 32.78C177.113 33.8767 176.355 34.7283 175.258 35.335C174.185 35.9417 172.82 36.245 171.163 36.245ZM187.383 36V16.26C187.383 14.3 187.955 12.7367 189.098 11.57C190.265 10.38 191.921 9.785 194.068 9.785C194.838 9.785 195.561 9.86667 196.238 10.03C196.938 10.1933 197.521 10.45 197.988 10.8L196.798 14.09C196.471 13.8333 196.098 13.6467 195.678 13.53C195.258 13.39 194.826 13.32 194.383 13.32C193.473 13.32 192.785 13.5767 192.318 14.09C191.851 14.58 191.618 15.3267 191.618 16.33V18.43L191.758 20.39V36H187.383ZM184.303 20.95V17.45H196.763V20.95H184.303ZM208.219 36.245C206.143 36.245 204.323 35.8367 202.759 35.02C201.219 34.18 200.018 33.0367 199.154 31.59C198.314 30.1433 197.894 28.4983 197.894 26.655C197.894 24.7883 198.303 23.1433 199.119 21.72C199.959 20.2733 201.103 19.1417 202.549 18.325C204.019 17.5083 205.688 17.1 207.554 17.1C209.374 17.1 210.996 17.4967 212.419 18.29C213.843 19.0833 214.963 20.2033 215.779 21.65C216.596 23.0967 217.004 24.8 217.004 26.76C217.004 26.9467 216.993 27.1567 216.969 27.39C216.969 27.6233 216.958 27.845 216.934 28.055H201.359V25.15H214.624L212.909 26.06C212.933 24.9867 212.711 24.0417 212.244 23.225C211.778 22.4083 211.136 21.7667 210.319 21.3C209.526 20.8333 208.604 20.6 207.554 20.6C206.481 20.6 205.536 20.8333 204.719 21.3C203.926 21.7667 203.296 22.42 202.829 23.26C202.386 24.0767 202.164 25.045 202.164 26.165V26.865C202.164 27.985 202.421 28.9767 202.934 29.84C203.448 30.7033 204.171 31.3683 205.104 31.835C206.038 32.3017 207.111 32.535 208.324 32.535C209.374 32.535 210.319 32.3717 211.159 32.045C211.999 31.7183 212.746 31.205 213.399 30.505L215.744 33.2C214.904 34.18 213.843 34.9383 212.559 35.475C211.299 35.9883 209.853 36.245 208.219 36.245Z" fill="#3C2A21"/>
<path d="M11.2441 33.75C13.9394 33.3496 16.4009 31.993 18.1796 29.9277C19.9582 27.8625 20.9354 25.2262 20.9328 22.5C20.9464 19.0778 22.1872 15.7742 24.4295 13.19C26.6719 10.6058 29.7669 8.91274 33.1515 8.41875L38.0052 7.725C37.874 7.575 37.7616 7.425 37.6116 7.275C31.5023 1.1625 19.7709 3 11.3753 11.3625C4.27276 18.5625 1.87401 28.125 5.17229 34.6125L11.2441 33.75Z" fill="#3C2A21"/>
<path d="M23.8564 22.5C23.8441 25.9215 22.6066 29.2254 20.3683 31.8123C18.1301 34.3992 15.0392 36.0978 11.6565 36.6L7.04639 37.2563L7.32749 37.575C13.4368 43.6875 25.1682 41.8688 33.5638 33.5063C40.6289 26.4563 43.1026 16.875 39.8231 10.4812L33.5638 11.3812C30.8858 11.7705 28.4352 13.1053 26.6549 15.1444C24.8746 17.1835 23.8819 19.7926 23.8564 22.5Z" fill="#3C2A21"/>
</svg>
